<svg xmlns="http://www.w3.org/2000/svg" fill="none" viewBox="0 0 220 60" height="60" width="220">
<path fill="#B2B2B2" d="M11.4936 11.1564C8.4267 12.1401 5.85169 14.6573 5.01264 17.4348C4.46292 19.3444 4.46292 22.6427 5.01264 24.5233C6.11208 28.1977 8.48456 29.9337 15.6888 32.2483C21.1281 34.0132 22.8062 34.9101 23.8767 36.6461C25.1498 38.7871 24.6868 42.4615 22.8641 44.5736C21.0124 46.7436 17.8877 47.6984 14.4447 47.1486C9.93119 46.4253 6.51714 42.8955 4.98371 37.3694C4.69438 36.3857 4.37612 35.6045 4.23146 35.6045C4.11573 35.6045 4 38.2952 4 41.5646V47.5248L4.81011 47.3222C6.63287 46.8593 8.19523 46.8593 10.7702 47.3222C14.4736 47.9877 18.8135 47.8141 21.1281 46.9172C23.2981 46.0781 25.6416 43.9371 26.6543 41.8829C28.1588 38.7871 28.2456 34.3025 26.8568 31.4093C26.1045 29.8758 24.195 28.082 22.2854 27.0983C21.5043 26.6933 18.7557 25.7385 16.1517 24.9284C9.78653 22.9899 8.05057 21.8615 7.47192 19.2576C6.8354 16.3932 8.31096 13.4421 11.0596 12.0244C12.5351 11.2722 13.0849 11.1564 15.1101 11.1564C17.0197 11.1564 17.7141 11.3011 18.9003 11.8797C21.6489 13.2106 24.1082 16.3932 25.1498 19.9809L25.5259 21.2828L25.7284 19.4022C25.8441 18.3606 25.9309 15.9882 25.9599 14.0786L25.9888 10.6646L25.2076 10.896C24.2818 11.1854 22.3144 11.1854 16.7304 10.925C13.6346 10.7514 12.5351 10.8092 11.4936 11.1564Z"></path>
<path fill="#B2B2B2" d="M73.5234 11.1561C66.1166 13.1525 61.5742 20.0963 61.5742 29.4126C61.5742 42.6927 71.2956 50.4467 83.6788 47.0615C86.4274 46.3093 86.601 46.2804 87.9319 46.7144C88.6841 46.9747 89.3785 47.1773 89.4653 47.1773C89.5521 47.1773 89.6389 44.6023 89.6389 41.4775C89.6389 38.3528 89.5521 35.8646 89.4653 35.9514C89.3785 36.0382 89.1181 36.8773 88.8866 37.8031C87.8161 41.8537 85.3858 45.0941 82.3189 46.4829C79.8018 47.6402 76.6481 47.6402 74.2467 46.5408C71.6138 45.3256 70.3408 43.2424 69.2992 38.4975C68.7784 36.125 68.7206 34.7652 68.7206 28.6604C68.7206 21.08 69.0099 18.5918 70.2829 15.6696C70.9773 14.0494 72.6554 12.3424 74.2756 11.648C75.7512 11.0115 79.5414 11.0404 81.4799 11.7058C83.9102 12.5449 86.1959 14.8595 87.7872 18.1C88.4816 19.5466 89.0602 20.8775 89.0602 21.08C89.0602 21.2826 89.2049 21.4272 89.3496 21.4272C89.5232 21.4272 89.6389 19.4887 89.6389 16.2193C89.6389 10.4617 89.6967 10.5775 87.7872 11.5033C86.8324 11.9373 86.6299 11.9373 83.7366 11.3587C80.1779 10.6353 75.8091 10.5485 73.5234 11.1561Z"></path>
<path fill="#B2B2B2" d="M104.48 11.1561C97.0737 13.1525 92.5312 20.0963 92.5312 29.4126C92.5312 42.6927 102.253 50.4467 114.636 47.0615C117.384 46.3093 117.558 46.2804 118.889 46.7144C119.641 46.9747 120.336 47.1773 120.422 47.1773C120.509 47.1773 120.596 44.6023 120.596 41.4775C120.596 38.3528 120.509 35.8646 120.422 35.9514C120.336 36.0382 120.075 36.8773 119.844 37.8031C118.773 41.8537 116.343 45.0941 113.276 46.4829C110.759 47.6402 107.605 47.6402 105.204 46.5408C102.571 45.3256 101.298 43.2424 100.256 38.4975C99.7355 36.125 99.6776 34.7652 99.6776 28.6604C99.6776 21.08 99.9669 18.5918 101.24 15.6696C101.934 14.0494 103.612 12.3424 105.233 11.648C106.708 11.0115 110.498 11.0404 112.437 11.7058C114.867 12.5449 117.153 14.8595 118.744 18.1C119.439 19.5466 120.017 20.8775 120.017 21.08C120.017 21.2826 120.162 21.4272 120.307 21.4272C120.48 21.4272 120.596 19.4887 120.596 16.2193C120.596 10.4617 120.654 10.5775 118.744 11.5033C117.789 11.9373 117.587 11.9373 114.694 11.3587C111.135 10.6353 106.766 10.5485 104.48 11.1561Z"></path>
<path fill="#B2B2B2" d="M162.029 11.272C157.4 13.0079 154.97 16.9428 155.404 22.0928C155.838 27.3585 158.615 29.8467 166.745 32.306C172.532 34.0709 174.586 35.4018 175.28 37.8611C175.657 39.3077 175.657 40.1757 175.165 41.7959C174.239 44.8338 172.098 46.6276 168.713 47.1774C162.81 48.1611 157.805 44.313 155.751 37.2535C155.491 36.3566 155.143 35.6043 154.999 35.6043C154.854 35.6043 154.738 38.0925 154.738 41.5644V47.5246L155.548 47.322C157.342 46.8591 158.934 46.8591 161.509 47.2931C169.61 48.6819 174.875 46.917 177.45 41.9695C179.678 37.6296 178.781 31.2065 175.599 28.6894C174.065 27.4453 171.49 26.2301 168.915 25.4779C161.856 23.4526 159.917 22.4978 158.847 20.5883C157.545 18.3026 158.239 14.9753 160.38 13.0658C162.058 11.6191 163.244 11.1852 165.877 11.1852C167.845 11.1562 168.423 11.272 169.841 11.9663C172.59 13.2972 175.454 17.1453 176.033 20.1832C176.467 22.44 176.727 20.7619 176.727 15.9012V10.6644L176.091 10.8958C175.309 11.1562 172.85 11.1562 167.469 10.8958C163.997 10.7222 163.389 10.7512 162.029 11.272Z"></path>
<path fill="#B2B2B2" d="M189.431 11.1563C186.364 12.14 183.789 14.6572 182.95 17.4347C182.4 19.3443 182.4 22.6426 182.95 24.5232C184.05 28.1977 186.422 29.9336 193.626 32.2482C199.066 34.0131 200.744 34.91 201.814 36.646C203.087 38.787 202.624 42.4615 200.802 44.5735C198.95 46.7435 195.825 47.6983 192.382 47.1485C187.869 46.4252 184.455 42.8954 182.921 37.3693C182.632 36.3856 182.314 35.6044 182.169 35.6044C182.053 35.6044 181.938 38.2951 181.938 41.5645V47.5247L182.748 47.3221C184.484 46.8592 186.277 46.8592 188.563 47.2932C193.25 48.1901 197.822 47.7851 200.454 46.2227C204.302 43.9659 206.357 39.3657 205.662 34.505C205.344 32.1325 204.476 30.4255 202.914 28.9788C201.149 27.3586 199.471 26.5774 194.089 24.9283C187.724 22.9898 185.988 21.8614 185.409 19.2575C184.773 16.3931 186.248 13.442 188.997 12.0243C190.473 11.2721 191.022 11.1563 193.048 11.1563C194.928 11.1563 195.681 11.301 196.838 11.8796C199.586 13.2395 202.017 16.3931 203.087 19.9808L203.463 21.2828L203.666 19.1128C203.753 17.9266 203.868 15.5252 203.897 13.7892L203.926 10.6645L203.145 10.8959C202.219 11.1853 200.252 11.1853 194.668 10.9249C191.572 10.7513 190.473 10.8091 189.431 11.1563Z"></path>
<path fill="#B2B2B2" d="M210.176 11.4749C209.366 12.3139 209.134 13.992 209.742 15.1204C210.176 15.9016 211.883 16.5959 212.925 16.3645C214.082 16.1041 215.21 14.6864 215.21 13.4133C215.21 11.0119 211.912 9.7389 210.176 11.4749ZM213.908 11.9667C214.979 13.5001 214.024 15.728 212.317 15.728C211.218 15.728 210.002 14.5706 210.002 13.5291C210.002 11.4749 212.78 10.3754 213.908 11.9667Z"></path>
<path fill="#B2B2B2" d="M211.677 12.0819C211.272 12.1687 211.156 12.5159 211.156 13.6443C211.156 14.4255 211.301 15.062 211.446 15.062C211.619 15.062 211.735 14.8016 211.735 14.4834C211.735 14.1651 211.908 13.9047 212.14 13.9047C212.371 13.9047 212.661 14.1651 212.748 14.4834C213.066 15.496 213.413 15.0909 213.413 13.76C213.384 12.8053 213.239 12.3423 212.863 12.1687C212.574 11.9952 212.314 11.9084 212.256 11.9084C212.198 11.9373 211.937 11.9952 211.677 12.0819ZM212.69 12.8921C212.719 13.0367 212.516 13.2103 212.256 13.2682C211.937 13.3261 211.735 13.1814 211.735 12.8921C211.735 12.4002 212.603 12.3713 212.69 12.8921Z"></path>
<path fill="#B2B2B2" d="M29.608 11.5036C30.7363 11.5614 31.72 11.7639 31.8358 11.9665C31.9515 12.169 32.0672 17.8977 32.0672 24.7547C32.0672 31.7564 32.2119 38.0059 32.3566 39.0764C33.2824 44.8918 36.7254 47.5536 43.785 47.9587C48.8771 48.248 53.1591 47.0039 55.2423 44.6604C56.5153 43.1848 57.7305 40.4651 58.0777 38.2084C58.2513 37.1668 58.3959 32.2193 58.3959 27.185C58.3959 13.7603 58.7431 12.5741 62.8805 11.6193C63.7196 11.4457 62.3308 11.3589 58.1066 11.3589C52.7251 11.3589 52.3201 11.3878 53.6799 11.7061C55.4738 12.1401 55.9367 12.4873 56.6889 13.9628C57.4701 15.4963 57.7884 19.4311 57.8173 27.5033C57.8173 38.0637 57.2676 41.1306 54.8662 43.8213C53.4774 45.4415 51.6257 46.4253 49.2822 46.8592C43.6403 47.9008 40.0527 46.1649 38.8375 41.796C38.3456 39.9733 38.2878 38.6424 38.2878 25.7673V11.735L40.4577 11.5614C41.6439 11.4746 39.2425 11.4168 35.1052 11.4168C30.9678 11.4168 28.4796 11.4746 29.608 11.5036Z"></path>
<path fill="#B2B2B2" d="M126.095 11.5612L128.265 11.7348L128.351 29.1522L128.409 46.5986L127.773 46.7433C127.397 46.8301 126.384 46.9169 125.516 46.9747C124.648 47.0326 130.145 47.0904 137.754 47.1194L151.555 47.1772V41.8536C151.555 38.9025 151.44 36.4432 151.295 36.3564C151.179 36.2696 150.369 37.832 149.53 39.7994C147.1 45.6438 146.434 46.3093 142.962 46.5697C139.346 46.8301 135.758 46.5407 135.151 45.9331C134.688 45.4702 134.63 44.6312 134.543 37.1955L134.456 28.9497H137.726C140.474 28.9497 141.14 29.0365 141.95 29.5283C143.02 30.1938 143.946 31.5825 144.206 32.9135C144.64 35.2281 144.901 33.4342 144.901 28.2264C144.901 24.6676 144.785 22.5845 144.611 22.5845C144.467 22.5845 144.322 22.9606 144.322 23.3946C144.322 24.8412 143.136 26.7219 141.747 27.4741C140.677 28.0528 139.924 28.1974 137.465 28.3132L134.456 28.4578L134.543 20.7617C134.659 11.0982 134.311 11.7348 139.49 11.7348C141.631 11.7348 143.57 11.8794 144.409 12.1398C146.608 12.7763 148.257 14.4834 149.733 17.5502C150.427 18.9968 150.977 20.3278 150.977 20.5303C150.977 20.7039 151.121 20.8485 151.266 20.8485C151.44 20.8485 151.555 19.0547 151.555 16.0747V11.3008L137.754 11.3586C130.145 11.3876 124.908 11.4744 126.095 11.5612Z"></path>
</svg>
